<?xml version="1.0" encoding="UTF-8" standalone="no"?>
<svg width="481px" height="224px" viewBox="0 0 481 224" version="1.1" xmlns="http://www.w3.org/2000/svg" xmlns:xlink="http://www.w3.org/1999/xlink">
    <!-- Generator: Sketch 40.3 (33839) - http://www.bohemiancoding.com/sketch -->
    <title>Group 6</title>
    <desc>Created with Sketch.</desc>
    <defs>
        <polygon id="path-1" points="408.888889 -7.10542736e-14 408.888889 163.875 1.42108547e-13 163.875 168.056092 -9.1342454e-15"></polygon>
        <polygon id="path-3" points="310.417655 0 146.556387 163.875 0 163.875 0 0"></polygon>
    </defs>
    <g id="Page-1" stroke="none" stroke-width="1" fill="none" fill-rule="evenodd">
        <g id="Group-6" transform="translate(-17.000000, 0.000000)">
            <g id="Group">
                <g>
                    <g id="fold" transform="translate(103.111111, 47.875000)">
                        <mask id="mask-2" fill="white">
                            <use xlink:href="#path-1"></use>
                        </mask>
                        <g id="Mask"></g>
                        <path d="M94.7222222,82.1601562 L94.7222222,69.9697266 L108.805556,69.9697266 L108.805556,58.5307617 C108.805556,48.9008308 111.319419,41.4558368 116.347222,36.1955566 C121.375025,30.9352764 128.388844,28.3051758 137.388889,28.3051758 C139.277787,28.3051758 141.180546,28.4582504 143.097222,28.7644043 C145.013898,29.0705582 147.138877,29.5019503 149.472222,30.0585938 L147.472222,42.5830078 C146.472217,42.3603504 145.263896,42.1655282 143.847222,41.9985352 C142.430548,41.8315421 140.97223,41.7480469 139.472222,41.7480469 C134.638865,41.7480469 131.055567,43.1813822 128.722222,46.0480957 C126.388877,48.9148093 125.222222,53.0756563 125.222222,58.5307617 L125.222222,69.9697266 L144.055556,69.9697266 L144.055556,82.1601562 L125.222222,82.1601562 L125.222222,147.454102 L138.805556,149.791992 L138.805556,160.3125 L95.2222222,160.3125 L95.2222222,149.791992 L108.805556,147.454102 L108.805556,82.1601562 L94.7222222,82.1601562 Z M157.055556,114.306152 C157.055556,100.946711 160.666631,89.9392523 167.888889,81.2834473 C175.111147,72.6276423 184.916605,68.2998047 197.305556,68.2998047 C209.750062,68.2998047 219.597186,72.6137264 226.847222,81.2416992 C234.097258,89.869672 237.722222,100.891046 237.722222,114.306152 L237.722222,116.143066 C237.722222,129.613837 234.111147,140.635211 226.888889,149.20752 C219.666631,157.779828 209.861173,162.065918 197.472222,162.065918 C184.97216,162.065918 175.111147,157.765912 167.888889,149.165771 C160.666631,140.565631 157.055556,129.558173 157.055556,116.143066 L157.055556,114.306152 Z M173.472222,116.143066 C173.472222,125.717333 175.486091,133.621551 179.513889,139.855957 C183.541687,146.090363 189.527738,149.20752 197.472222,149.20752 C205.250039,149.20752 211.166646,146.090363 215.222222,139.855957 C219.277798,133.621551 221.305556,125.717333 221.305556,116.143066 L221.305556,114.306152 C221.305556,104.843214 219.277798,96.9668283 215.222222,90.6767578 C211.166646,84.3866873 205.194484,81.2416992 197.305556,81.2416992 C189.416627,81.2416992 183.472242,84.3866873 179.472222,90.6767578 C175.472202,96.9668283 173.472222,104.843214 173.472222,114.306152 L173.472222,116.143066 Z M248.805556,40.6625977 L248.805556,30.0585938 L278.805556,30.0585938 L278.805556,147.454102 L292.388889,149.791992 L292.388889,160.3125 L248.805556,160.3125 L248.805556,149.791992 L262.388889,147.454102 L262.388889,43.0004883 L248.805556,40.6625977 Z M365.555556,149.541504 C362.611096,153.660665 359.01391,156.777821 354.763889,158.893066 C350.513868,161.008311 345.583361,162.065918 339.972222,162.065918 C328.972167,162.065918 320.375031,158.072061 314.180556,150.084229 C307.98608,142.096396 304.888889,131.589909 304.888889,118.564453 L304.888889,116.811035 C304.888889,102.282642 307.98608,90.5654742 314.180556,81.6591797 C320.375031,72.7528852 329.027722,68.2998047 340.138889,68.2998047 C345.472249,68.2998047 350.180535,69.2878319 354.263889,71.263916 C358.347243,73.2400001 361.833319,76.0927548 364.722222,79.8222656 L364.722222,43.0004883 L351.138889,40.6625977 L351.138889,30.0585938 L364.722222,30.0585938 L381.138889,30.0585938 L381.138889,147.454102 L394.722222,149.791992 L394.722222,160.3125 L366.888889,160.3125 L365.555556,149.541504 Z M321.305556,118.564453 C321.305556,127.637741 323.166648,134.92966 326.888889,140.44043 C330.61113,145.951199 336.361072,148.706543 344.138889,148.706543 C349.027802,148.706543 353.138872,147.593273 356.472222,145.366699 C359.805572,143.140126 362.555545,139.995138 364.722222,135.931641 L364.722222,94.0166016 C362.611101,90.2314264 359.861128,87.2255971 356.472222,84.9990234 C353.083316,82.7724498 349.027801,81.6591797 344.305556,81.6591797 C336.472183,81.6591797 330.680574,84.9154948 326.930556,91.4282227 C323.180537,97.9409505 321.305556,106.401803 321.305556,116.811035 L321.305556,118.564453 Z" fill="#FFFFFF" mask="url(#mask-2)"></path>
                    </g>
                    <polygon id="Line" fill="#FFFFFF" points="311.877114 7.61438633 314.391272 5.09531842 309.362957 0.0571826077 306.8488 2.57625052 93.4580788 216.38375 90.9439213 218.902818 95.9722362 223.940954 98.4863937 221.421886"></polygon>
                    <g id="be" transform="translate(0.000000, 1.562500)">
                        <mask id="mask-4" fill="white">
                            <use xlink:href="#path-3"></use>
                        </mask>
                        <g id="Mask"></g>
                        <path d="M107.694444,104.314453 C107.694444,117.339909 104.569476,127.846396 98.3194444,135.834229 C92.0694132,143.822061 83.4722769,147.815918 72.5277778,147.815918 C66.6388594,147.815918 61.5277994,146.688732 57.1944444,144.434326 C52.8610894,142.17992 49.2500144,138.854026 46.3611111,134.456543 L44.8611111,146.0625 L30.6944444,146.0625 L30.6944444,28.7504883 L17.1111111,26.4125977 L17.1111111,15.8085938 L47.1111111,15.8085938 L47.1111111,66.4072266 C49.9444586,62.399394 53.4583124,59.3379012 57.6527778,57.2226563 C61.8472432,55.1074113 66.7499719,54.0498047 72.3611111,54.0498047 C83.4722778,54.0498047 92.1388578,58.5028852 98.3611111,67.4091797 C104.583364,76.3154742 107.694444,88.0326422 107.694444,102.561035 L107.694444,104.314453 Z M91.1944444,102.561035 C91.1944444,92.1518034 89.3055744,83.6909505 85.5277778,77.1782227 C81.7499811,70.6654948 75.9722611,67.4091797 68.1944444,67.4091797 C63.1388636,67.4091797 58.8750174,68.6337768 55.4027778,71.0830078 C51.9305382,73.5322388 49.1666769,76.8163857 47.1111111,80.9355469 L47.1111111,120.84668 C49.1666769,125.021505 51.9583157,128.333484 55.4861111,130.782715 C59.0139065,133.231946 63.3055303,134.456543 68.3611111,134.456543 C76.0833719,134.456543 81.8194257,131.701199 85.5694444,126.19043 C89.3194632,120.67966 91.1944444,113.387741 91.1944444,104.314453 L91.1944444,102.561035 Z M165.194444,147.815918 C152.638826,147.815918 142.652815,143.627239 135.236111,135.249756 C127.819407,126.872273 124.111111,116.003973 124.111111,102.644531 L124.111111,98.9707031 C124.111111,86.1122404 127.930517,75.4109314 135.569444,66.8664551 C143.208372,58.3219788 152.249948,54.0498047 162.694444,54.0498047 C174.805616,54.0498047 183.98608,57.7235961 190.236111,65.0712891 C196.486142,72.4189821 199.611111,82.2157591 199.611111,94.4619141 L199.611111,104.731934 L141.111111,104.731934 L140.861111,105.149414 C141.027779,113.833051 143.222201,120.971896 147.444444,126.566162 C151.666688,132.160428 157.583295,134.95752 165.194444,134.95752 C170.750028,134.95752 175.624979,134.164315 179.819444,132.577881 C184.01391,130.991447 187.638874,128.806655 190.694444,126.023438 L197.111111,136.710938 C193.888873,139.828141 189.625027,142.458241 184.319444,144.601318 C179.013862,146.744395 172.638926,147.815918 165.194444,147.815918 L165.194444,147.815918 Z M162.694444,66.9916992 C157.194417,66.9916992 152.500019,69.3156506 148.611111,73.963623 C144.722203,78.6115955 142.333338,84.4423477 141.444444,91.4560547 L141.611111,91.8735352 L183.194444,91.8735352 L183.194444,89.7026367 C183.194444,83.2455732 181.472239,77.8462131 178.027778,73.5043945 C174.583316,69.1625759 169.472256,66.9916992 162.694444,66.9916992 L162.694444,66.9916992 Z" fill="#FFFFFF" mask="url(#mask-4)"></path>
                    </g>
                </g>
            </g>
        </g>
    </g>
</svg>