<?xml version="1.0" encoding="UTF-8" standalone="no"?>
<svg width="73px" height="70px" viewBox="0 0 73 70" version="1.1" xmlns="http://www.w3.org/2000/svg" xmlns:xlink="http://www.w3.org/1999/xlink">
    <!-- Generator: Sketch 40.3 (33839) - http://www.bohemiancoding.com/sketch -->
    <title>Group 4</title>
    <desc>Created with Sketch.</desc>
    <defs></defs>
    <g id="Page-1" stroke="none" stroke-width="1" fill="none" fill-rule="evenodd">
        <g id="Group-4" fill="#505C6F">
            <path d="M39.6817778,4.43359465 L67.3515888,24.5368891 C69.0645187,25.7814055 69.9651372,28.5514348 69.3105655,30.5659993 L58.7416381,63.093813 C58.0873571,65.1074828 55.7312092,66.820008 53.6129707,66.820008 L19.4112033,66.820008 C17.2939056,66.820008 14.9371076,65.1083775 14.2825359,63.093813 L3.71360852,30.5659993 C3.05932754,28.5523295 3.95889424,25.7819584 5.67258517,24.5368891 L33.3423962,4.43359465 C35.0553261,3.18907827 37.9680869,3.18852532 39.6817778,4.43359465 Z M3.90922941,22.1098381 C1.1438902,24.1189747 -0.195393814,28.2435311 0.860438973,31.4930503 L11.4293663,64.020864 C12.4856319,67.2717152 15.9944567,69.820008 19.4112033,69.820008 L53.6129707,69.820008 C57.0311179,69.820008 60.5389749,67.2703832 61.5948077,64.020864 L72.163735,31.4930503 C73.2200006,28.2421991 71.8791507,24.1181514 69.1149446,22.1098381 L41.4451336,2.00654367 C38.6797943,-0.00259287115 34.3432466,-0.0017696333 31.5790404,2.00654367 L3.90922941,22.1098381 Z" id="Polygon"></path>
            <g id="Group" transform="translate(16.000000, 24.000000)">
                <path d="M25.5328867,0.4359375 L24.1520067,0.0525892857 C23.9740667,-0.00747321429 23.7991333,0.0113482143 23.6288467,0.109053571 C23.4580133,0.206758929 23.3426667,0.353455357 23.2833533,0.548866071 L14.9767533,29.6617411 C14.91744,29.8571518 14.9360267,30.0414911 15.0325133,30.2142054 C15.129,30.3871964 15.2735933,30.5037232 15.46684,30.5637857 L16.8474467,30.9471339 C17.02566,31.00775 17.2000467,30.9889286 17.37088,30.8909464 C17.5417133,30.7929643 17.6567867,30.6465446 17.7161,30.4514107 L26.0227,1.33825893 C26.0820133,1.14284821 26.0634267,0.958508929 25.96694,0.785517857 C25.8704533,0.612526786 25.72586,0.496 25.5328867,0.4359375 L25.5328867,0.4359375 Z" id="Shape"></path>
                <path d="M13.0844667,6.11917857 C13.0844667,5.92376786 13.01012,5.75077679 12.8617,5.60048214 L11.74814,4.47285714 C11.59972,4.3225625 11.4288867,4.24727679 11.2359133,4.24727679 C11.04294,4.24727679 10.8721067,4.3225625 10.7236867,4.47285714 L0.346313333,14.9813036 C0.19762,15.1315982 0.123546667,15.3045893 0.123546667,15.5 C0.123546667,15.6954107 0.197893333,15.8684018 0.346313333,16.0186964 L10.7236867,26.5271429 C10.8721067,26.6777143 11.0426667,26.7524464 11.2359133,26.7524464 C11.42916,26.7524464 11.59972,26.6774375 11.74814,26.5271429 L12.8617,25.4000714 C13.01012,25.2497768 13.0844667,25.0767857 13.0844667,24.8810982 C13.0844667,24.6859643 13.01012,24.5129732 12.8617,24.3626786 L4.10984,15.5 L12.8617,6.637875 C13.0103933,6.48758036 13.0844667,6.31458929 13.0844667,6.11917857 L13.0844667,6.11917857 Z" id="Shape"></path>
                <path d="M40.6534133,14.9810268 L30.2757667,4.47258036 C30.1273467,4.32228571 29.9565133,4.247 29.7638133,4.247 C29.5705667,4.247 29.40028,4.32228571 29.2513133,4.47258036 L28.1383,5.60020536 C27.98988,5.7505 27.9158067,5.92321429 27.9158067,6.11890179 C27.9158067,6.31458929 27.98988,6.48730357 28.1383,6.63759821 L36.89016,15.5 L28.1383,24.3626786 C27.98988,24.5129732 27.9158067,24.6859643 27.9158067,24.8810982 C27.9158067,25.0767857 27.98988,25.2497768 28.1383,25.4000714 L29.2513133,26.5271429 C29.40028,26.6777143 29.5705667,26.7524464 29.7638133,26.7524464 C29.9565133,26.7524464 30.1273467,26.6774375 30.2757667,26.5271429 L40.6534133,16.0186964 C40.8018333,15.8684018 40.8759067,15.6951339 40.8759067,15.4997232 C40.8759067,15.3043125 40.8018333,15.1313214 40.6534133,14.9810268 L40.6534133,14.9810268 Z" id="Shape"></path>
            </g>
        </g>
    </g>
</svg>