<?xml version="1.0" encoding="UTF-8" standalone="no"?>
<svg width="73px" height="70px" viewBox="0 0 73 70" version="1.1" xmlns="http://www.w3.org/2000/svg" xmlns:xlink="http://www.w3.org/1999/xlink">
    <!-- Generator: Sketch 40.3 (33839) - http://www.bohemiancoding.com/sketch -->
    <title>Group 3</title>
    <desc>Created with Sketch.</desc>
    <defs></defs>
    <g id="Page-1" stroke="none" stroke-width="1" fill="none" fill-rule="evenodd">
        <g id="Group-3" fill="#505C6F">
            <path d="M39.6817778,4.43359465 L67.3515888,24.5368891 C69.0645187,25.7814055 69.9651372,28.5514348 69.3105655,30.5659993 L58.7416381,63.093813 C58.0873571,65.1074828 55.7312092,66.820008 53.6129707,66.820008 L19.4112033,66.820008 C17.2939056,66.820008 14.9371076,65.1083775 14.2825359,63.093813 L3.71360852,30.5659993 C3.05932754,28.5523295 3.95889424,25.7819584 5.67258517,24.5368891 L33.3423962,4.43359465 C35.0553261,3.18907827 37.9680869,3.18852532 39.6817778,4.43359465 Z M3.90922941,22.1098381 C1.1438902,24.1189747 -0.195393814,28.2435311 0.860438973,31.4930503 L11.4293663,64.020864 C12.4856319,67.2717152 15.9944567,69.820008 19.4112033,69.820008 L53.6129707,69.820008 C57.0311179,69.820008 60.5389749,67.2703832 61.5948077,64.020864 L72.163735,31.4930503 C73.2200006,28.2421991 71.8791507,24.1181514 69.1149446,22.1098381 L41.4451336,2.00654367 C38.6797943,-0.00259287115 34.3432466,-0.0017696333 31.5790404,2.00654367 L3.90922941,22.1098381 Z" id="Polygon"></path>
            <g id="Group" transform="translate(14.000000, 21.000000)">
                <path d="M25.4831013,26.7074028 C25.4831013,26.5641111 25.4325949,26.4208194 25.3315823,26.2775278 C24.5229494,25.3167083 23.8732785,24.4925833 23.3823038,23.8048889 C23.6853418,23.2174722 23.9163418,22.6728056 24.075038,22.1714167 L27.4321139,21.6555139 C27.5623671,21.641 27.6777342,21.5657917 27.7787468,21.4298889 C27.8797595,21.2931944 27.93,21.1538611 27.93,21.0105694 L27.93,17.0327083 C27.93,16.8751667 27.8797595,16.7353056 27.7787468,16.6136528 C27.6777342,16.492 27.5549241,16.4165278 27.4105823,16.3882917 L24.1186329,15.8937639 C23.9594051,15.4063611 23.7140506,14.8184167 23.382038,14.1307222 C23.5984177,13.8151111 23.923519,13.3849722 24.3568101,12.8405694 C24.7898354,12.2959028 25.0934051,11.9090417 25.2664557,11.6797222 C25.3674684,11.5364306 25.4179747,11.4 25.4179747,11.2712222 C25.4179747,10.8840972 24.3783418,9.7375 22.2996076,7.83116667 C22.1552658,7.71663889 22.0037468,7.659375 21.844519,7.659375 C21.6714684,7.659375 21.5271266,7.70898611 21.4112278,7.80979167 L18.8556076,9.72325 C18.2638861,9.42241667 17.7224051,9.20022222 17.2314304,9.05666667 L16.7332785,5.76729167 C16.7191899,5.624 16.6468861,5.49838889 16.5168987,5.39098611 C16.3869114,5.28358333 16.2425696,5.22975 16.0836076,5.22975 L12.0555949,5.22975 C11.7235823,5.22975 11.5069367,5.40180556 11.4059241,5.74565278 C11.2326076,6.40511111 11.0667342,7.50895833 10.9077722,9.05666667 C10.2870759,9.25722222 9.73124051,9.48654167 9.24026582,9.744625 L6.74977215,7.80979167 C6.60543038,7.70925 6.45391139,7.659375 6.29494937,7.659375 C6.02035443,7.659375 5.45016456,8.082125 4.5838481,8.92788889 C3.71753165,9.77338889 3.12527848,10.4112083 2.80788608,10.8413472 C2.70660759,10.9561389 2.65636709,11.0994306 2.65636709,11.2714861 C2.65636709,11.4002639 2.70660759,11.5435556 2.80788608,11.7013611 C3.61625316,12.6619167 4.26592405,13.4860417 4.75689873,14.1737361 C4.45386076,14.7616806 4.22286076,15.3060833 4.06416456,15.8077361 L0.707088608,16.323375 C0.577101266,16.337625 0.461734177,16.4128333 0.360455696,16.5487361 C0.259443038,16.6851667 0.208936709,16.8247639 0.208936709,16.9680556 L0.208936709,20.9453889 C0.208936709,21.1031944 0.259443038,21.2430556 0.360455696,21.3647083 C0.461734177,21.486625 0.584278481,21.5547083 0.728886076,21.5689583 L4.02083544,22.0848611 C4.1941519,22.6295278 4.44694937,23.2172083 4.77896203,23.8479028 C4.54796203,24.1635139 4.20877215,24.6007778 3.76112658,25.1594306 C3.31321519,25.7186111 3.01735443,26.0986111 2.87301266,26.2989028 C2.772,26.4421944 2.72149367,26.5788889 2.72149367,26.7074028 C2.72149367,27.0947917 3.76112658,28.241125 5.84012658,30.1474583 C5.98446835,30.2619861 6.13598734,30.3189861 6.29494937,30.3189861 C6.48262025,30.3189861 6.62696203,30.269375 6.72797468,30.1688333 L9.28359494,28.255375 C9.87531646,28.5564722 10.4167975,28.7784028 10.9077722,28.9216944 L11.4059241,32.2113333 C11.4202785,32.354625 11.4925823,32.4802361 11.6223038,32.5876389 C11.7522911,32.6950417 11.8966329,32.7486111 12.0555949,32.7486111 L16.0836076,32.7486111 C16.4158861,32.7486111 16.6322658,32.5768194 16.7332785,32.2327083 C16.9065949,31.5587361 17.0724684,30.4480278 17.2314304,28.9000556 C17.8087975,28.7285278 18.3646329,28.5058056 18.8989367,28.234 L21.3896962,30.1688333 C21.534038,30.269375 21.685557,30.3189861 21.844519,30.3189861 C22.1188481,30.3189861 22.6858481,29.8928056 23.5447215,29.0396528 C24.4035949,28.1872917 24.9993038,27.5455139 25.3315823,27.115375 C25.4325949,27.015625 25.4831013,26.8794583 25.4831013,26.7074028 L25.4831013,26.7074028 Z M17.989557,22.88075 C16.9068608,23.9555694 15.6000759,24.4931111 14.0697342,24.4931111 C12.5391266,24.4931111 11.2323418,23.9555694 10.1496456,22.88075 C9.06694937,21.8059306 8.52546835,20.5086528 8.52546835,18.9891806 C8.52546835,17.4699722 9.06694937,16.1726944 10.1496456,15.097875 C11.2323418,14.0227917 12.5391266,13.4855139 14.0697342,13.4855139 C15.6000759,13.4855139 16.9068608,14.0227917 17.989557,15.097875 C19.072519,16.1726944 19.6137342,17.4699722 19.6137342,18.9891806 C19.6137342,20.5086528 19.072519,21.8059306 17.989557,22.88075 L17.989557,22.88075 Z" id="Shape"></path>
                <path d="M38.5639747,27.8257639 C38.3765696,27.4101389 38.1599241,27.0375278 37.9145696,26.7076667 C38.6508987,25.0879167 39.0187975,24.0988611 39.0187975,23.7407639 C39.0187975,23.6837639 38.9903544,23.6333611 38.9324051,23.5903472 C37.1995063,22.5870417 36.304481,22.0853889 36.2467975,22.0853889 L36.1168101,22.1286667 C35.5250886,22.7163472 34.8605316,23.5190972 34.1244684,24.5366528 C33.8357848,24.5081528 33.6194051,24.493375 33.4750633,24.493375 C33.3301899,24.493375 33.1140759,24.5081528 32.8251266,24.5366528 C32.6236329,24.2352917 32.2477595,23.7515833 31.6993671,23.0852639 C31.1509747,22.4189444 30.8186962,22.0853889 30.7030633,22.0853889 C30.6743544,22.0853889 30.4577089,22.2001806 30.0533924,22.4297639 C29.6490759,22.6590833 29.2232278,22.9026528 28.7755823,23.161 C28.3274051,23.4193472 28.0754051,23.562375 28.0174557,23.5911389 C27.9592405,23.6338889 27.9307975,23.6842917 27.9307975,23.7412917 C27.9307975,24.0996528 28.298962,25.0881806 29.0350253,26.7081944 C28.7899367,27.0380556 28.5732911,27.4106667 28.3856203,27.8260278 C26.2340506,28.0408333 25.1582658,28.2630278 25.1582658,28.4923472 L25.1582658,31.5022639 C25.1582658,31.7315833 26.2340506,31.9537778 28.3856203,32.1685833 C28.5584051,32.5554444 28.7753165,32.9283194 29.0350253,33.2861528 C28.298962,34.9059028 27.9307975,35.8949583 27.9307975,36.2533194 C27.9307975,36.3103194 27.9592405,36.3607222 28.0174557,36.4037361 C29.7785316,37.4212917 30.6740886,37.9300694 30.7030633,37.9300694 C30.8186962,37.9300694 31.1509747,37.5933472 31.6993671,36.9196389 C32.2477595,36.2456667 32.6233671,35.7587917 32.8251266,35.4576944 C33.1138101,35.4859306 33.3301899,35.5004444 33.4750633,35.5004444 C33.6194051,35.5004444 33.8357848,35.4859306 34.1244684,35.4576944 C34.3262278,35.7587917 34.7018354,36.2456667 35.2504937,36.9196389 C35.7988861,37.5933472 36.1308987,37.9300694 36.2467975,37.9300694 C36.2755063,37.9300694 37.1710633,37.4210278 38.9324051,36.4037361 C38.9903544,36.3607222 39.0187975,36.3105833 39.0187975,36.2533194 C39.0187975,35.8949583 38.6506329,34.9059028 37.9145696,33.2861528 C38.1742785,32.9283194 38.3909241,32.5554444 38.5639747,32.1685833 C40.7155443,31.9537778 41.7913291,31.7315833 41.7913291,31.5022639 L41.7913291,28.4923472 C41.7913291,28.2630278 40.7155443,28.0408333 38.5639747,27.8257639 L38.5639747,27.8257639 Z M35.434443,31.9429583 C34.8934937,32.4805 34.2398354,32.7496667 33.4745316,32.7496667 C32.7092278,32.7496667 32.0558354,32.4805 31.5146203,31.9429583 C30.9731392,31.4054167 30.7022658,30.7570417 30.7022658,29.9973056 C30.7022658,29.2520833 30.9768608,28.6066111 31.525519,28.0622083 C32.0741772,27.5178056 32.7238481,27.2452083 33.4745316,27.2452083 C34.2252152,27.2452083 34.8754177,27.5175417 35.4240759,28.0622083 C35.9724684,28.6066111 36.2470633,29.2520833 36.2470633,29.9973056 C36.2467975,30.7570417 35.9761899,31.4054167 35.434443,31.9429583 L35.434443,31.9429583 Z" id="Shape"></path>
                <path d="M38.5639747,5.80977778 C38.3765696,5.39415278 38.1599241,5.02154167 37.9145696,4.69168056 C38.6508987,3.07219444 39.0187975,2.08313889 39.0187975,1.72477778 C39.0187975,1.66777778 38.9903544,1.617375 38.9324051,1.57436111 C37.1995063,0.571055556 36.304481,0.0694027778 36.2467975,0.0694027778 L36.1168101,0.112416667 C35.5250886,0.700361111 34.8605316,1.50284722 34.1244684,2.52040278 C33.8357848,2.49190278 33.6194051,2.47738889 33.4750633,2.47738889 C33.3301899,2.47738889 33.1140759,2.49190278 32.8251266,2.52040278 C32.6236329,2.21930556 32.2477595,1.73559722 31.6993671,1.06927778 C31.1509747,0.402694444 30.8186962,0.0694027778 30.7030633,0.0694027778 C30.6743544,0.0694027778 30.4577089,0.183930556 30.0533924,0.413513889 C29.6490759,0.643097222 29.2232278,0.886666667 28.7755823,1.14475 C28.3274051,1.40283333 28.0754051,1.546125 28.0174557,1.574625 C27.9592405,1.61763889 27.9307975,1.66777778 27.9307975,1.72504167 C27.9307975,2.08340278 28.298962,3.07245833 29.0350253,4.69194444 C28.7899367,5.02180556 28.5732911,5.39441667 28.3856203,5.81004167 C26.2340506,6.02484722 25.1582658,6.24704167 25.1582658,6.47636111 L25.1582658,9.48627778 C25.1582658,9.71559722 26.2340506,9.93779167 28.3856203,10.1525972 C28.5584051,10.5394583 28.7753165,10.9123333 29.0350253,11.2706944 C28.298962,12.8904444 27.9307975,13.8792361 27.9307975,14.2375972 C27.9307975,14.2945972 27.9592405,14.345 28.0174557,14.3880139 C29.7785316,15.4055694 30.6740886,15.9143472 30.7030633,15.9143472 C30.8186962,15.9143472 31.1509747,15.577625 31.6993671,14.9039167 C32.2477595,14.2302083 32.6233671,13.7430694 32.8251266,13.4419722 C33.1138101,13.4704722 33.3301899,13.4849861 33.4750633,13.4849861 C33.6194051,13.4849861 33.8357848,13.4704722 34.1244684,13.4419722 C34.3262278,13.7430694 34.7018354,14.2302083 35.2504937,14.9039167 C35.7988861,15.577625 36.1308987,15.9143472 36.2467975,15.9143472 C36.2755063,15.9143472 37.1710633,15.4055694 38.9324051,14.3880139 C38.9903544,14.345 39.0187975,14.2948611 39.0187975,14.2375972 C39.0187975,13.8792361 38.6506329,12.8904444 37.9145696,11.2706944 C38.1742785,10.9123333 38.3909241,10.5397222 38.5639747,10.1525972 C40.7155443,9.93779167 41.7913291,9.71559722 41.7913291,9.48627778 L41.7913291,6.47636111 C41.7913291,6.24704167 40.7155443,6.02484722 38.5639747,5.80977778 L38.5639747,5.80977778 Z M35.434443,9.92697222 C34.8934937,10.4645139 34.2398354,10.7334167 33.4745316,10.7334167 C32.7092278,10.7334167 32.0558354,10.4645139 31.5146203,9.92697222 C30.9731392,9.38969444 30.7022658,8.74105556 30.7022658,7.98131944 C30.7022658,7.23609722 30.9768608,6.59088889 31.525519,6.04622222 C32.0741772,5.50155556 32.7238481,5.22922222 33.4745316,5.22922222 C34.2252152,5.22922222 34.8754177,5.50181944 35.4240759,6.04622222 C35.9724684,6.59088889 36.2470633,7.23609722 36.2470633,7.98131944 C36.2467975,8.74105556 35.9761899,9.38969444 35.434443,9.92697222 L35.434443,9.92697222 Z" id="Shape"></path>
            </g>
        </g>
    </g>
</svg>