<?xml version="1.0" encoding="UTF-8" standalone="no"?>
<svg width="73px" height="70px" viewBox="0 0 73 70" version="1.1" xmlns="http://www.w3.org/2000/svg" xmlns:xlink="http://www.w3.org/1999/xlink">
    <!-- Generator: Sketch 40.3 (33839) - http://www.bohemiancoding.com/sketch -->
    <title>Group</title>
    <desc>Created with Sketch.</desc>
    <defs></defs>
    <g id="Page-1" stroke="none" stroke-width="1" fill="none" fill-rule="evenodd">
        <g id="Group" fill="#505C6F">
            <path d="M39.6817778,4.43359465 L67.3515888,24.5368891 C69.0645187,25.7814055 69.9651372,28.5514348 69.3105655,30.5659993 L58.7416381,63.093813 C58.0873571,65.1074828 55.7312092,66.820008 53.6129707,66.820008 L19.4112033,66.820008 C17.2939056,66.820008 14.9371076,65.1083775 14.2825359,63.093813 L3.71360852,30.5659993 C3.05932754,28.5523295 3.95889424,25.7819584 5.67258517,24.5368891 L33.3423962,4.43359465 C35.0553261,3.18907827 37.9680869,3.18852532 39.6817778,4.43359465 Z M3.90922941,22.1098381 C1.1438902,24.1189747 -0.195393814,28.2435311 0.860438973,31.4930503 L11.4293663,64.020864 C12.4856319,67.2717152 15.9944567,69.820008 19.4112033,69.820008 L53.6129707,69.820008 C57.0311179,69.820008 60.5389749,67.2703832 61.5948077,64.020864 L72.163735,31.4930503 C73.2200006,28.2421991 71.8791507,24.1181514 69.1149446,22.1098381 L41.4451336,2.00654367 C38.6797943,-0.00259287115 34.3432466,-0.0017696333 31.5790404,2.00654367 L3.90922941,22.1098381 Z" id="Polygon"></path>
            <polygon id="Fill-2" transform="translate(36.251648, 41.767397) rotate(-8.000000) translate(-36.251648, -41.767397) " points="33.9991111 44.7920358 25.7516481 44.7920358 31.6924407 21.2617581 45.4057339 23.1890358 37.8826344 36.9670358 46.7516481 36.9670358 28.4761896 62.2730358"></polygon>
        </g>
    </g>
</svg>