<?xml version="1.0" encoding="UTF-8" standalone="no"?>
<svg width="73px" height="70px" viewBox="0 0 73 70" version="1.1" xmlns="http://www.w3.org/2000/svg" xmlns:xlink="http://www.w3.org/1999/xlink">
    <!-- Generator: Sketch 40.3 (33839) - http://www.bohemiancoding.com/sketch -->
    <title>Group 2</title>
    <desc>Created with Sketch.</desc>
    <defs></defs>
    <g id="Page-1" stroke="none" stroke-width="1" fill="none" fill-rule="evenodd">
        <g id="Group-2" fill="#505C6F">
            <path d="M39.6817778,4.43359465 L67.3515888,24.5368891 C69.0645187,25.7814055 69.9651372,28.5514348 69.3105655,30.5659993 L58.7416381,63.093813 C58.0873571,65.1074828 55.7312092,66.820008 53.6129707,66.820008 L19.4112033,66.820008 C17.2939056,66.820008 14.9371076,65.1083775 14.2825359,63.093813 L3.71360852,30.5659993 C3.05932754,28.5523295 3.95889424,25.7819584 5.67258517,24.5368891 L33.3423962,4.43359465 C35.0553261,3.18907827 37.9680869,3.18852532 39.6817778,4.43359465 Z M3.90922941,22.1098381 C1.1438902,24.1189747 -0.195393814,28.2435311 0.860438973,31.4930503 L11.4293663,64.020864 C12.4856319,67.2717152 15.9944567,69.820008 19.4112033,69.820008 L53.6129707,69.820008 C57.0311179,69.820008 60.5389749,67.2703832 61.5948077,64.020864 L72.163735,31.4930503 C73.2200006,28.2421991 71.8791507,24.1181514 69.1149446,22.1098381 L41.4451336,2.00654367 C38.6797943,-0.00259287115 34.3432466,-0.0017696333 31.5790404,2.00654367 L3.90922941,22.1098381 Z" id="Polygon"></path>
            <g id="puzzle12" transform="translate(19.000000, 20.000000)">
                <path d="M35.9257801,21.1977496 C35.2525719,20.3248402 34.3090996,19.8878406 33.0959081,19.8878406 C32.4594798,19.8878406 31.8453918,19.9989976 31.2536442,20.2207667 C30.6610793,20.4428083 30.1837581,20.690732 29.821408,20.9645378 C29.4593304,21.2380713 29.0670116,21.4862674 28.6452688,21.7080365 C28.2237985,21.9300781 27.8497334,22.0415075 27.5247082,22.0415075 C26.8585835,22.0415075 26.2003597,21.700953 25.5489469,21.0203888 C25.0310316,20.4727771 24.7719377,19.6072236 24.7719377,18.423456 C24.7719377,17.0176469 24.9492985,15.2048069 25.3042925,12.9852086 C25.3195494,12.9408003 25.3451591,12.7816932 25.381939,12.5078874 C25.4195362,12.2343539 25.4557712,11.982616 25.493096,11.7532185 C25.5298759,11.5238209 25.5554856,11.3944102 25.57047,11.3647139 L25.57047,11.3203055 C24.8754662,11.3500019 23.6690858,11.4755984 21.9524185,11.69764 C20.2357511,11.9196815 18.9043191,12.0305661 17.9570325,12.0305661 C17.0544268,12.0305661 16.2921295,11.8346791 15.6706855,11.4423603 C15.0492416,11.0503139 14.7383834,10.4324117 14.7383834,9.58892624 C14.7383834,9.04131453 14.8680666,8.5160432 15.126888,8.0128398 C15.3857095,7.5096364 15.6668713,7.09143542 15.9703735,6.75850929 C16.2738757,6.42531073 16.5550376,5.98885602 16.813859,5.44887273 C17.0729529,4.90916189 17.2023637,4.33539559 17.2023637,3.72893606 C17.2023637,2.55988041 16.8029613,1.64583201 16.0038841,0.987608183 C15.2048069,0.329384357 14.2133845,-3.55271368e-15 13.0296169,-3.55271368e-15 C11.7717447,-3.55271368e-15 10.70649,0.336740335 9.83330818,1.00994856 C8.96039877,1.68315679 8.52367162,2.6266291 8.52367162,3.84009306 C8.52367162,4.47624895 8.63455618,5.09033691 8.85659774,5.68235693 C9.07836686,6.27410451 9.32629057,6.75142576 9.60009643,7.11404824 C9.87390228,7.47667072 10.121826,7.86871711 10.3435951,8.29045986 C10.5656367,8.71247506 10.6765212,9.08599528 10.6765212,9.41156543 C10.6765212,10.0774177 10.3362391,10.7359139 9.65540248,11.3870542 C9.10779077,11.9049696 8.24223734,12.1643359 7.05846974,12.1643359 C5.65266057,12.1643359 3.83982062,11.9867027 1.62022231,11.6314362 C1.57608644,11.6159069 1.41697935,11.5900247 1.1431735,11.5529724 C0.869367645,11.5159201 0.617902168,11.4791402 0.388504626,11.4420879 C0.159107084,11.4050355 0.0294239128,11.3794258 0,11.3644414 L0,34.0941416 C0,34.109126 0.0147119564,34.116482 0.0444083128,34.116482 C0.0738322255,34.1311939 0.0961726037,34.1382774 0.11088456,34.1382774 L0.399402371,34.1829582 C0.532899753,34.2121097 0.736142706,34.2423509 1.00994856,34.2715024 C1.28375442,34.3009263 1.48726981,34.3308951 1.62049475,34.3600466 C3.84009306,34.7155855 5.65293302,34.8929463 7.05874218,34.8929463 C8.24250978,34.8929463 9.10806322,34.6338524 9.65567493,34.1156646 C10.3365116,33.4645243 10.6767937,32.8057556 10.6767937,32.1404483 C10.6767937,31.8148781 10.5659091,31.4413579 10.3438676,31.0193427 C10.1220984,30.5978724 9.87390228,30.205826 9.60036887,29.8432035 C9.32683546,29.480581 9.07891175,29.0032598 8.85687018,28.4115122 C8.63482862,27.8194922 8.52394406,27.2054042 8.52394406,26.5689759 C8.52394406,25.3555119 8.96067121,24.4120396 9.83358062,23.7388314 C10.70649,23.0653507 11.7646611,22.7288828 13.007549,22.7288828 C14.206301,22.7288828 15.2050794,23.0582672 16.0041565,23.716491 C16.8032337,24.3747148 17.2026361,25.2887632 17.2026361,26.4578189 C17.2026361,27.0642784 17.0732254,27.6380447 16.8141315,28.1777556 C16.55531,28.7180113 16.2738757,29.1541936 15.970646,29.4876646 C15.6671438,29.8208631 15.3862544,30.2385192 15.1271605,30.7419951 C14.8680666,31.244926 14.7386559,31.7701974 14.7386559,32.3175366 C14.7386559,33.161567 15.0492416,33.7791967 15.670958,34.1715156 C16.2926744,34.5632895 17.0546992,34.7591765 17.957305,34.7591765 C18.6381416,34.7591765 19.3631141,34.7223966 20.132495,34.6482919 C20.9018758,34.5744597 21.7565315,34.4744729 22.6961896,34.3486039 C23.6358477,34.222735 24.357006,34.1374601 24.8602094,34.0930518 C25.0231307,34.0780674 25.2675126,34.0707114 25.5925379,34.0707114 L25.5925379,33.9600993 C25.6075223,33.3830637 25.4966377,32.5322222 25.2598842,31.4073024 C25.0231307,30.2829275 24.9043453,29.4320861 24.9043453,28.854778 C24.9043453,27.0198701 25.7184069,26.1022799 27.3462576,26.1022799 C27.8938693,26.1022799 28.4191406,26.2319631 28.922344,26.4907846 C29.425275,26.7498785 29.843476,27.0313127 30.1761296,27.3345425 C30.5096007,27.6380447 30.9466002,27.9192066 31.4865835,28.1783005 C32.0262944,28.4368495 32.5995158,28.5668051 33.2062478,28.5668051 C34.3753034,28.5668051 35.2893518,28.1671303 35.9475756,27.3680531 C36.6063444,26.5687034 36.9351838,25.5701975 36.9351838,24.371718 C36.9351838,23.1285576 36.5989884,22.0709315 35.9257801,21.1977496 L35.9257801,21.1977496 Z" id="Shape"></path>
            </g>
        </g>
    </g>
</svg>