<?xml version="1.0" standalone="no"?>
<!DOCTYPE svg PUBLIC "-//W3C//DTD SVG 20010904//EN"
 "http://www.w3.org/TR/2001/REC-SVG-20010904/DTD/svg10.dtd">
<svg version="1.0" xmlns="http://www.w3.org/2000/svg"
 width="800.000000pt" height="800.000000pt" viewBox="0 0 800.000000 800.000000"
 preserveAspectRatio="xMidYMid meet">
<metadata>
Created by potrace 1.11, written by Peter Selinger 2001-2013
</metadata>
<g transform="translate(0.000000,800.000000) scale(0.100000,-0.100000)"
fill="#000000" stroke="none">
<path d="M0 4000 l0 -4000 4000 0 4000 0 0 4000 0 4000 -4000 0 -4000 0 0
-4000z m4232 717 c-194 -194 -350 -356 -346 -360 4 -4 17 -7 30 -7 48 0 51 -6
41 -70 l-10 -60 -64 0 c-120 0 -153 -38 -161 -187 l-5 -93 97 0 96 0 0 -60 0
-60 -95 0 -95 0 2 -327 3 -328 65 -10 65 -10 3 -52 3 -53 -221 0 -221 0 3 53
3 52 65 10 65 10 3 328 2 327 -70 0 -70 0 0 42 0 43 -510 -510 -509 -509 -26
24 -26 24 347 347 347 347 -42 7 c-148 25 -271 154 -307 324 -51 243 37 473
219 569 48 25 62 27 162 27 94 0 118 -3 162 -24 130 -58 202 -205 203 -413 l0
-58 -296 0 -297 0 6 -54 c10 -102 72 -201 144 -232 18 -8 65 -14 105 -14 l73
0 680 680 680 680 25 -25 25 -25 -353 -353z m-2322 -18 l0 -251 46 41 c63 55
126 74 228 69 107 -6 172 -39 232 -120 127 -173 136 -519 18 -674 -75 -98
-146 -134 -268 -134 -94 0 -154 21 -215 76 l-49 44 -7 -55 -6 -55 -70 0 -69 0
0 589 0 589 -47 7 c-96 13 -93 11 -93 71 l0 54 150 0 150 0 0 -251z m3352
-946 l3 -588 65 -10 65 -10 3 -52 3 -53 -221 0 -221 0 3 52 3 53 60 10 60 10
3 519 c2 387 -1 522 -9 527 -7 4 -36 10 -66 14 l-53 6 0 55 0 54 150 0 150 0
2 -587z m1020 0 l3 -588 65 -10 65 -10 3 -52 3 -53 -140 0 -140 0 -7 51 -7 50
-36 -35 c-59 -58 -122 -81 -221 -81 -71 0 -94 4 -140 26 -137 65 -209 208
-210 416 0 167 44 305 125 392 68 73 121 95 225 95 96 0 150 -18 213 -74 l37
-32 0 181 c0 204 11 180 -90 198 l-45 9 -3 52 -3 52 150 0 151 0 2 -587z
m-1668 169 c159 -75 249 -263 233 -482 -17 -212 -124 -361 -292 -405 -165 -43
-327 10 -421 138 -136 184 -118 518 34 674 46 47 123 90 186 103 75 16 193 4
260 -28z"/>
<path d="M2995 4418 c-64 -35 -119 -114 -131 -187 l-7 -41 208 0 208 0 -6 55
c-12 116 -84 185 -193 185 -32 0 -68 -6 -79 -12z"/>
<path d="M3505 3990 l-49 -50 52 0 52 0 0 50 c0 28 -1 50 -3 50 -1 0 -25 -22
-52 -50z"/>
<path d="M2049 4420 c-41 -12 -80 -41 -110 -84 l-29 -39 0 -203 0 -202 33 -43
c40 -52 94 -81 162 -87 149 -12 234 86 243 281 11 244 -76 389 -230 386 -24 0
-55 -4 -69 -9z"/>
<path d="M5824 3806 c-84 -37 -135 -159 -137 -326 -1 -128 18 -199 68 -257 83
-98 258 -88 335 19 l30 41 0 211 0 211 -30 37 c-42 51 -103 78 -176 78 -32 -1
-73 -7 -90 -14z"/>
<path d="M4365 3816 c-99 -36 -155 -155 -155 -326 0 -215 86 -340 235 -340
105 0 180 64 216 183 17 56 21 88 18 180 -4 105 -6 117 -39 182 -45 90 -92
125 -176 131 -37 3 -74 -1 -99 -10z"/>
</g>
</svg>
